<?xml version="1.0" standalone="no"?><!DOCTYPE svg PUBLIC "-//W3C//DTD SVG 1.1//EN" "http://www.w3.org/Graphics/SVG/1.1/DTD/svg11.dtd"><svg t="1641218200755" class="icon" viewBox="0 0 1024 1024" version="1.1" xmlns="http://www.w3.org/2000/svg" p-id="2116" xmlns:xlink="http://www.w3.org/1999/xlink" width="200" height="200"><defs><style type="text/css"></style></defs><path d="M888.494817 313.882803l-198.019982-198.019982c-7.992021-7.992021-20.957311-7.992021-28.949332 0s-7.992021 20.947078 0 28.939099l163.084309 163.084309-215.794811 0L608.814999 42.686195c0-11.307533-9.15859-20.466124-20.466124-20.466124l-408.094512 0c-11.307533 0-20.466124 9.15859-20.466124 20.466124l0 938.62761c0 11.2973 9.15859 20.466124 20.466124 20.466124l693.76067 0c11.307533 0 20.466124-9.168824 20.466124-20.466124l0-652.961452C894.481158 322.92883 892.332215 317.720202 888.494817 313.882803zM853.54891 960.847681l-652.828422 0L200.720488 63.152319l367.162264 0 0 265.200034c0 11.307533 9.168824 20.466124 20.466124 20.466124l265.200034 0L853.54891 960.847681z" p-id="2117"></path></svg>