<svg t="1641219586795" class="icon" viewBox="0 0 1024 1024" version="1.1" xmlns="http://www.w3.org/2000/svg" p-id="5304" width="200" height="200"><path d="M376.832 384s-136.16 307.552-160.88 363.84c-8.64 19.68-25.648 23.264-37.408 18.88C151.36 756.56 158.816 752 158.816 240h186.768l32 80H816v-80H431.744l-32-80H80v552.768c0 73.76 37.024 134.832 107.472 135.152l526.08-0.064c61.056 0 85.744-37.744 100.56-70.768C824.8 753.232 978.912 384 978.912 384h-602.08z m376.064 333.984C729.056 772.704 726.928 768 713.28 768H294.56c28-64 134.432-304.16 134.432-304.16h429.76s-87.808 212.736-105.856 254.144z" fill="#565D64" p-id="5305"></path></svg>